<svg width="51" height="44" viewBox="0 0 51 44" fill="none" xmlns="http://www.w3.org/2000/svg">
<path d="M49.8957 30.7497L47.266 13.4196L44.8247 19.8694L35.2631 4.30995L36.5968 18.5357L29.0619 12.0859V21.6476L27.2836 24.978L12.6133 23.6443L22.8381 30.9833L12.6133 37.4256H27.2836L24.6162 42.5342L41.5696 41.2307C43.6844 41.0693 45.6771 40.1769 47.2057 38.7065C48.257 37.6916 49.05 36.4395 49.518 35.0551C49.986 33.6708 50.1155 32.1944 49.8957 30.7497Z" fill="#D61D20"/>
<path d="M47.5598 31.8121L46.2638 23.2752C46.2512 23.1859 46.2113 23.1028 46.1496 23.0371C46.0879 22.9714 46.0074 22.9264 45.9191 22.9082C45.8308 22.8901 45.7392 22.8996 45.6566 22.9357C45.574 22.9717 45.5045 23.0324 45.4577 23.1094L45.0131 23.8101C44.9506 23.9355 44.8545 24.041 44.7353 24.1147C44.6162 24.1885 44.4788 24.2275 44.3387 24.2275C44.1986 24.2275 44.0612 24.1885 43.9421 24.1147C43.823 24.041 43.7268 23.9355 43.6643 23.8101L40.1532 18.1063C40.0994 18.0159 40.0175 17.9456 39.9201 17.906C39.8227 17.8664 39.715 17.8598 39.6134 17.8871C39.5119 17.9144 39.422 17.9742 39.3576 18.0573C39.2931 18.1404 39.2576 18.2422 39.2564 18.3474L39.1057 24.0588L34.3061 19.9598V26.0405L33.1759 28.1577L23.8477 27.3063L30.3503 31.9704L26.7864 33.7486C26.6645 33.811 26.5652 33.9101 26.5025 34.0319C26.4398 34.1536 26.4167 34.292 26.4367 34.4275C26.4566 34.563 26.5185 34.6888 26.6136 34.7873C26.7088 34.8858 26.8325 34.9521 26.9672 34.9768L32.1058 35.881C32.2286 35.9035 32.3444 35.9545 32.4439 36.0299C32.5434 36.1052 32.6239 36.2029 32.6788 36.315C32.7338 36.4271 32.7617 36.5505 32.7603 36.6753C32.759 36.8002 32.7283 36.9229 32.6709 37.0338L32.0306 38.262C31.977 38.3663 31.952 38.483 31.9583 38.6001C31.9645 38.7172 32.0017 38.8305 32.0661 38.9286C32.1304 39.0266 32.2196 39.1058 32.3245 39.1581C32.4295 39.2105 32.5464 39.234 32.6634 39.2264L42.2554 38.4729C43.6004 38.3683 44.8678 37.8012 45.842 36.868C46.5098 36.2226 47.0138 35.4272 47.3126 34.5479C47.6113 33.6686 47.6961 32.7308 47.5598 31.8121Z" fill="#EA5521"/>
<path d="M49.8957 30.7497L47.266 13.4196L44.8247 19.8694L35.2631 4.30995L36.5968 18.5357L29.0619 12.0859V21.6476L27.2836 24.978L12.6133 23.6443L22.8381 30.9833L12.6133 37.4256H27.2836L24.6162 42.5342L41.5696 41.2307C43.6844 41.0693 45.6771 40.1769 47.2057 38.7065V38.7065C48.257 37.6916 49.05 36.4395 49.518 35.0551C49.986 33.6708 50.1155 32.1944 49.8957 30.7497V30.7497Z" stroke="#461414" stroke-width="2" stroke-linecap="round" stroke-linejoin="round"/>
<path d="M25.7844 31.6614C32.7315 36.3179 39.3999 38.6839 46.1662 38.9024L48.3286 38.9777L47.643 36.9207C45.5031 30.5011 41.3364 24.7821 34.8941 19.4549L33.6658 18.4453L24.4658 30.7798L25.7844 31.6614Z" fill="#461414"/>
<path d="M24.4732 30.7497L33.6732 18.4152L9.74256 0L0 13.0579L24.4732 30.7497Z" fill="#461414"/>
<path d="M33.9294 20.5852C39.7312 25.3849 44.0487 30.8703 46.2112 37.3728C39.3696 37.1468 32.8821 34.5699 26.6206 30.3805L33.9294 20.5852Z" fill="#726A67"/>
<path d="M33.9291 20.5852L10.0286 2.13237L2.12451 12.7264L26.6278 30.3805L33.9291 20.5852Z" fill="#A59289"/>
<path d="M7.76121 16.7877L5.94531 15.4841L13.7589 5.0107L15.5296 6.3745L7.76121 16.7877Z" fill="#726A67"/>
<path d="M26.6279 30.3805L33.9292 20.5852" stroke="#461414" stroke-width="2" stroke-linecap="round" stroke-linejoin="round"/>
<g opacity="0.22">
<path opacity="0.22" d="M8.70264 3.90308L10.0288 2.13239L33.9293 20.5852C39.7311 25.3849 44.0486 30.8703 46.2111 37.3729C44.0486 30.8703 33.7033 23.1169 31.8949 21.6853L8.70264 3.90308Z" fill="white"/>
</g>
<g opacity="0.28">
<path opacity="0.28" d="M46.2114 37.3728C39.3698 37.1468 32.8823 34.5698 26.6208 30.3805L2.125 12.7263L4.53611 9.49388L28.0448 26.4322C34.2987 30.6216 38.5937 34.5925 46.2114 37.3728Z" fill="black"/>
</g>
<path opacity="0.48" d="M43.8682 33.5225C43.8047 33.3236 43.7266 33.1297 43.6345 32.9424C42.936 31.4401 41.971 30.0769 40.7864 28.9187C40.5372 28.6227 40.184 28.4339 39.7994 28.3913C37.7198 28.4666 41.3062 33.6205 41.7056 34.2157C42.2481 34.9692 43.7852 35.7227 43.966 34.2157C43.9766 33.9806 43.9435 33.7455 43.8682 33.5225Z" fill="white"/>
</svg>
