<svg width="60" height="38" viewBox="0 0 60 38" fill="none" xmlns="http://www.w3.org/2000/svg">
<path d="M14.0791 32.4497C12.6608 32.4479 11.2628 32.1139 9.99685 31.4745C8.73093 30.8351 7.63231 29.908 6.78917 28.7676L3.24221 23.9505C2.78399 23.3284 2.47424 22.6097 2.33683 21.8494H2.15457C1.7496 21.8492 1.35272 21.735 1.00969 21.5197C0.66666 21.3045 0.391281 20.9969 0.214986 20.6324C0.0386913 20.2678 -0.0313689 19.8609 0.0129292 19.4584C0.0572273 19.0558 0.214179 18.6739 0.465537 18.3564L3.39759 14.6676C3.85375 14.0929 4.43424 13.629 5.09536 13.3107C5.75648 12.9924 6.48115 12.828 7.2149 12.8299H12.4778L14.0858 10.8369H16.464C16.1198 9.89875 16.1343 8.8666 16.5046 7.93849L18.3152 3.31729C18.6964 2.33661 19.3659 1.49462 20.2356 0.902377C21.1053 0.310137 22.1341 -0.00448973 23.1863 4.84101e-05H35.0771C35.766 -0.000395466 36.4481 0.13616 37.0837 0.40177C37.7193 0.667381 38.2957 1.05673 38.7795 1.54719H42.2182V3.12814H57.8182V8.82354H42.2182V10.3977H41.0292C40.9958 10.5467 40.9529 10.6934 40.9008 10.8369H46.8801L48.0624 12.8299H53.2646C54.0674 12.8293 54.8578 13.0277 55.5652 13.4073C56.2726 13.787 56.8749 14.3361 57.3182 15.0054L59.6423 18.5051C59.8571 18.8299 59.98 19.2068 59.9978 19.5958C60.0155 19.9848 59.9276 20.3713 59.7432 20.7143C59.5589 21.0574 59.2851 21.344 58.9509 21.5438C58.6166 21.7437 58.2346 21.8493 57.8452 21.8494H57.7304C57.593 22.6097 57.2833 23.3284 56.825 23.9505L53.2848 28.7676C52.4406 29.9069 51.3419 30.8331 50.0762 31.4723C48.8105 32.1116 47.4129 32.4463 45.995 32.4497H14.0791Z" fill="#461414"/>
<path d="M2.15456 20.4981H57.852C57.9979 20.5009 58.1417 20.4635 58.2678 20.39C58.3939 20.3166 58.4975 20.21 58.5672 20.0817C58.6369 19.9535 58.6702 19.8086 58.6632 19.6628C58.6562 19.517 58.6093 19.376 58.5276 19.255L56.2035 15.7553C55.8839 15.2702 55.4483 14.8722 54.9364 14.5974C54.4245 14.3226 53.8523 14.1795 53.2713 14.1812H7.21489C6.68303 14.1826 6.15847 14.305 5.68091 14.5391C5.20334 14.7732 4.78524 15.1128 4.45834 15.5324L1.52612 19.2212C1.43737 19.339 1.38313 19.4791 1.36926 19.626C1.35539 19.7728 1.38249 19.9206 1.44761 20.0529C1.51273 20.1853 1.61328 20.297 1.73808 20.3756C1.86288 20.4542 2.00708 20.4966 2.15456 20.4981Z" fill="#5B5920"/>
<path d="M14.7343 12.1881H46.1097L48.0622 15.4715H12.0791L14.7343 12.1881Z" fill="#5B5920"/>
<path d="M56.4734 4.47258H38.8872V7.46554H56.4734V4.47258Z" fill="#5B5920"/>
<path d="M40.8736 2.89839H35.6714V9.03971H40.8736V2.89839Z" fill="#5B5920"/>
<path d="M37.0562 12.1881H20.3213C19.8737 12.1873 19.4331 12.0772 19.0377 11.8674C18.6423 11.6576 18.304 11.3545 18.0523 10.9844C17.8007 10.6142 17.6433 10.1882 17.5936 9.74331C17.544 9.29846 17.6036 8.84821 17.7675 8.43168L19.5781 3.81051C19.8657 3.08628 20.3639 2.46487 21.0081 2.02651C21.6524 1.58816 22.4134 1.35296 23.1927 1.35127H35.0835C35.983 1.35055 36.8545 1.66303 37.5486 2.23509C38.2427 2.80714 38.716 3.60308 38.8871 4.48612L39.7587 8.91138C39.8365 9.30993 39.8251 9.72078 39.7252 10.1144C39.6254 10.508 39.4396 10.8746 39.1812 11.1879C38.9228 11.5012 38.5984 11.7534 38.231 11.9263C37.8636 12.0992 37.4623 12.1886 37.0562 12.1881Z" fill="#72722A"/>
<path d="M31.2397 2.89166C31.1835 2.97018 31.1124 3.0368 31.0303 3.08761C29.9426 3.76323 28.8819 3.66862 27.6523 3.83077C25.8542 4.08 24.0754 4.45248 22.3284 4.94555C21.8983 5.11138 21.4315 5.15807 20.9771 5.08068C20.8674 5.05608 20.7636 5.00979 20.672 4.94456C20.5804 4.87932 20.5027 4.79643 20.4435 4.70077C20.3844 4.60511 20.345 4.49861 20.3276 4.3875C20.3102 4.27639 20.3151 4.16291 20.3421 4.05373C21.0853 2.29714 23.4499 2.21606 25.0105 2.1485C26.963 2.06743 28.9089 1.99986 30.8682 2.06067C31.4492 2.07418 31.4829 2.57412 31.2397 2.89166Z" fill="#8C8A3B"/>
<path d="M45.9956 31.0985H14.0729C12.8657 31.0991 11.6753 30.8156 10.5979 30.2711C9.52045 29.7265 8.58628 28.9361 7.87085 27.9637L4.32388 23.1465C3.92189 22.5991 3.67939 21.9511 3.62336 21.2743C3.56734 20.5974 3.70001 19.9183 4.00653 19.3123C4.31305 18.7062 4.78135 18.197 5.35973 17.841C5.93811 17.4851 6.60384 17.2963 7.28298 17.2957H52.7788C53.4589 17.2938 54.1262 17.481 54.7061 17.8365C55.286 18.1919 55.7557 18.7016 56.0626 19.3085C56.3696 19.9155 56.5018 20.5959 56.4445 21.2736C56.3871 21.9513 56.1425 22.5998 55.7379 23.1465L52.1977 27.9637C51.4819 28.9357 50.5476 29.7258 49.4703 30.2703C48.393 30.8149 47.2027 31.0985 45.9956 31.0985Z" fill="#72722A"/>
<path opacity="0.59" d="M14.0797 29.6797C13.0953 29.6792 12.1247 29.4479 11.2459 29.0044C10.3671 28.5608 9.60448 27.9175 9.01934 27.1259L5.47237 22.3088C5.22562 21.972 5.07676 21.5736 5.04236 21.1575C5.00797 20.7414 5.08931 20.324 5.27741 19.9513C5.46551 19.5786 5.7531 19.2651 6.10823 19.0457C6.46337 18.8262 6.87226 18.7093 7.28973 18.7077H52.7855C53.203 18.7093 53.6119 18.8262 53.967 19.0457C54.3221 19.2651 54.6097 19.5786 54.7978 19.9513C54.9859 20.324 55.0673 20.7414 55.0329 21.1575C54.9985 21.5736 54.8496 21.972 54.6029 22.3088L51.0627 27.1259C50.4768 27.9167 49.7141 28.5595 48.8354 29.003C47.9568 29.4464 46.9865 29.6781 46.0023 29.6797H14.0797Z" fill="black"/>
<path d="M7.2825 23.2141C8.52503 23.2141 9.53229 22.2068 9.53229 20.9643C9.53229 19.7218 8.52503 18.7145 7.2825 18.7145C6.03998 18.7145 5.03271 19.7218 5.03271 20.9643C5.03271 22.2068 6.03998 23.2141 7.2825 23.2141Z" fill="#444117"/>
<path d="M12.7409 29.6797C14.5133 29.6797 15.9501 28.2429 15.9501 26.4705C15.9501 24.6981 14.5133 23.2614 12.7409 23.2614C10.9685 23.2614 9.53174 24.6981 9.53174 26.4705C9.53174 28.2429 10.9685 29.6797 12.7409 29.6797Z" fill="#444117"/>
<path d="M12.7416 28.1325C13.6595 28.1325 14.4036 27.3884 14.4036 26.4705C14.4036 25.5526 13.6595 24.8085 12.7416 24.8085C11.8237 24.8085 11.0796 25.5526 11.0796 26.4705C11.0796 27.3884 11.8237 28.1325 12.7416 28.1325Z" fill="#5B5920"/>
<path d="M24.1388 29.6797C25.9112 29.6797 27.348 28.2429 27.348 26.4705C27.348 24.6981 25.9112 23.2614 24.1388 23.2614C22.3665 23.2614 20.9297 24.6981 20.9297 26.4705C20.9297 28.2429 22.3665 29.6797 24.1388 29.6797Z" fill="#444117"/>
<path d="M24.1391 28.1325C25.057 28.1325 25.8011 27.3884 25.8011 26.4705C25.8011 25.5526 25.057 24.8085 24.1391 24.8085C23.2212 24.8085 22.4771 25.5526 22.4771 26.4705C22.4771 27.3884 23.2212 28.1325 24.1391 28.1325Z" fill="#5B5920"/>
<path d="M35.5427 29.6797C37.315 29.6797 38.7518 28.2429 38.7518 26.4705C38.7518 24.6981 37.315 23.2614 35.5427 23.2614C33.7703 23.2614 32.3335 24.6981 32.3335 26.4705C32.3335 28.2429 33.7703 29.6797 35.5427 29.6797Z" fill="#444117"/>
<path d="M35.5434 28.1325C36.4613 28.1325 37.2054 27.3884 37.2054 26.4705C37.2054 25.5526 36.4613 24.8085 35.5434 24.8085C34.6255 24.8085 33.8813 25.5526 33.8813 26.4705C33.8813 27.3884 34.6255 28.1325 35.5434 28.1325Z" fill="#5B5920"/>
<path d="M46.9406 29.6797C48.713 29.6797 50.1498 28.2429 50.1498 26.4705C50.1498 24.6981 48.713 23.2614 46.9406 23.2614C45.1682 23.2614 43.7314 24.6981 43.7314 26.4705C43.7314 28.2429 45.1682 29.6797 46.9406 29.6797Z" fill="#444117"/>
<path d="M46.9408 28.1325C47.8587 28.1325 48.6028 27.3884 48.6028 26.4705C48.6028 25.5526 47.8587 24.8085 46.9408 24.8085C46.0229 24.8085 45.2788 25.5526 45.2788 26.4705C45.2788 27.3884 46.0229 28.1325 46.9408 28.1325Z" fill="#5B5920"/>
<path d="M18.68 23.2141C19.9225 23.2141 20.9298 22.2068 20.9298 20.9643C20.9298 19.7218 19.9225 18.7145 18.68 18.7145C17.4374 18.7145 16.4302 19.7218 16.4302 20.9643C16.4302 22.2068 17.4374 23.2141 18.68 23.2141Z" fill="#444117"/>
<path d="M52.7981 23.2141C54.0407 23.2141 55.0479 22.2068 55.0479 20.9643C55.0479 19.7218 54.0407 18.7145 52.7981 18.7145C51.5556 18.7145 50.5483 19.7218 50.5483 20.9643C50.5483 22.2068 51.5556 23.2141 52.7981 23.2141Z" fill="#444117"/>
<path d="M30.0706 23.1263C31.3131 23.1263 32.3204 22.119 32.3204 20.8765C32.3204 19.6339 31.3131 18.6267 30.0706 18.6267C28.8281 18.6267 27.8208 19.6339 27.8208 20.8765C27.8208 22.119 28.8281 23.1263 30.0706 23.1263Z" fill="#444117"/>
<path d="M40.8675 23.1263C42.11 23.1263 43.1173 22.119 43.1173 20.8765C43.1173 19.6339 42.11 18.6267 40.8675 18.6267C39.6249 18.6267 38.6177 19.6339 38.6177 20.8765C38.6177 22.119 39.6249 23.1263 40.8675 23.1263Z" fill="#444117"/>
<path d="M44.367 37.152C43.9681 37.154 43.5728 37.0768 43.204 36.9249C42.8352 36.773 42.5001 36.5493 42.2184 36.2669L13.4846 7.5264C13.1859 7.24807 12.9465 6.9124 12.7803 6.53946C12.6142 6.16652 12.5248 5.76395 12.5176 5.35574C12.5104 4.94752 12.5854 4.54204 12.7383 4.16348C12.8912 3.78491 13.1189 3.44103 13.4076 3.15233C13.6963 2.86363 14.0401 2.63602 14.4187 2.48311C14.7973 2.3302 15.2027 2.25513 15.6109 2.26233C16.0191 2.26953 16.4218 2.35888 16.7947 2.52504C17.1677 2.69121 17.5033 2.93078 17.7816 3.22948L46.5222 31.9633C46.9472 32.3889 47.2364 32.931 47.3533 33.521C47.4702 34.111 47.4094 34.7225 47.1786 35.278C46.9479 35.8334 46.5577 36.308 46.0572 36.6416C45.5567 36.9751 44.9685 37.1528 44.367 37.152Z" fill="#461414"/>
<path d="M15.6329 37.152C15.032 37.1514 14.4446 36.9728 13.9452 36.6387C13.4457 36.3046 13.0564 35.83 12.8265 35.2748C12.5966 34.7196 12.5364 34.1087 12.6535 33.5193C12.7706 32.9299 13.0597 32.3884 13.4843 31.9633L42.2181 3.24975C42.5002 2.96716 42.8353 2.74291 43.2041 2.5898C43.5729 2.4367 43.9683 2.35775 44.3677 2.35744C44.767 2.35712 45.1625 2.43547 45.5315 2.58799C45.9006 2.74051 46.2358 2.96423 46.5184 3.24636C46.801 3.5285 47.0252 3.86356 47.1783 4.23236C47.3314 4.60116 47.4104 4.99648 47.4107 5.3958C47.411 5.79511 47.3327 6.1906 47.1801 6.55964C47.0276 6.92868 46.804 7.26405 46.5218 7.54663L17.7813 36.2872C17.4979 36.5659 17.1621 36.7858 16.7934 36.9342C16.4247 37.0826 16.0303 37.1566 15.6329 37.152Z" fill="#461414"/>
<path d="M44.3665 35.8007C44.1456 35.801 43.9268 35.7575 43.7227 35.6729C43.5186 35.5882 43.3333 35.4641 43.1774 35.3075L14.4368 6.57372C14.1296 6.25474 13.96 5.82784 13.9644 5.38497C13.9689 4.9421 14.147 4.51872 14.4606 4.20599C14.7742 3.89326 15.1982 3.71622 15.6411 3.71301C16.084 3.7098 16.5104 3.88068 16.8285 4.18883L45.5623 32.9226C45.7969 33.1592 45.9561 33.4598 46.0202 33.7867C46.0843 34.1136 46.0502 34.4521 45.9224 34.7598C45.7946 35.0674 45.5788 35.3303 45.3019 35.5156C45.025 35.7008 44.6996 35.8 44.3665 35.8007Z" fill="#D61D20"/>
<path d="M15.6331 35.8007C15.3 35.8 14.9745 35.7008 14.6977 35.5156C14.4208 35.3304 14.2048 35.0674 14.077 34.7598C13.9492 34.4521 13.9152 34.1136 13.9793 33.7867C14.0434 33.4598 14.2027 33.1592 14.4372 32.9226L43.1778 4.18884C43.3309 4.01754 43.5173 3.8793 43.7257 3.78254C43.9341 3.68579 44.1601 3.63256 44.3898 3.62613C44.6195 3.61971 44.848 3.66019 45.0615 3.74514C45.2749 3.83009 45.4689 3.95772 45.6313 4.12018C45.7938 4.28265 45.9215 4.47654 46.0064 4.69003C46.0914 4.90351 46.1318 5.13209 46.1253 5.36176C46.1189 5.59143 46.0657 5.81735 45.969 6.02575C45.8722 6.23414 45.734 6.42061 45.5627 6.57373L16.8289 35.3075C16.672 35.4646 16.4855 35.589 16.2803 35.6737C16.0751 35.7583 15.8551 35.8015 15.6331 35.8007Z" fill="#D61D20"/>
</svg>
