<svg width="51" height="49" viewBox="0 0 51 49" fill="none" xmlns="http://www.w3.org/2000/svg">
<path d="M38.5897 48.0193C37.8358 48.0183 37.0935 47.8335 36.427 47.4811L26.2731 42.1402C26.1872 42.1002 26.0936 42.0795 25.9989 42.0795C25.9042 42.0795 25.8106 42.1002 25.7248 42.1402L15.5708 47.4811C14.8031 47.8878 13.9368 48.0707 13.0703 48.0092C12.2037 47.9476 11.3717 47.6441 10.6691 47.1331C9.9666 46.622 9.42161 45.9241 9.09622 45.1186C8.77083 44.3131 8.67827 43.4324 8.82873 42.5768L10.768 31.2856C10.7841 31.1918 10.7768 31.0954 10.7467 31.0051C10.7166 30.9147 10.6647 30.8332 10.5955 30.7678L2.39106 22.7665C1.77025 22.1606 1.33131 21.3931 1.1238 20.5509C0.916288 19.7086 0.94847 18.825 1.21676 18.0001C1.48505 17.1751 1.97866 16.4417 2.64193 15.8826C3.3052 15.3235 4.11175 14.9611 4.97019 14.8363L16.312 13.1913C16.4053 13.1755 16.4935 13.1378 16.5694 13.0813C16.6453 13.0249 16.7066 12.9512 16.7486 12.8664L21.8256 2.59063C22.2084 1.81315 22.8013 1.15839 23.5371 0.70053C24.2728 0.242668 25.1222 0 25.9888 0C26.8554 0 27.7047 0.242668 28.4405 0.70053C29.1763 1.15839 29.7692 1.81315 30.152 2.59063L35.2289 12.8664C35.2709 12.9512 35.3323 13.0249 35.4082 13.0813C35.4841 13.1378 35.5722 13.1755 35.6655 13.1913L47.0073 14.8363C47.8658 14.9611 48.6723 15.3235 49.3356 15.8826C49.9989 16.4417 50.4925 17.1751 50.7608 18.0001C51.0291 18.825 51.0613 19.7086 50.8537 20.5509C50.6462 21.3931 50.2073 22.1606 49.5865 22.7665L41.382 30.7678C41.3137 30.8317 41.2624 30.9114 41.2323 31C41.2022 31.0886 41.1943 31.1832 41.2095 31.2755L43.1488 42.5768C43.2642 43.2444 43.2325 43.9291 43.0556 44.5831C42.8787 45.2371 42.5609 45.8445 42.1247 46.3629C41.6886 46.8813 41.1444 47.2981 40.5303 47.5843C39.9161 47.8704 39.2471 48.0188 38.5696 48.0193H38.5897Z" fill="#461414"/>
<path d="M28.355 3.48415L33.4319 13.7701C33.6206 14.1498 33.8981 14.4784 34.2411 14.7277C34.5841 14.977 34.9823 15.1396 35.4018 15.2018L46.7436 16.8467C47.2251 16.9185 47.6773 17.123 48.049 17.4374C48.4208 17.7518 48.6975 18.1635 48.8483 18.6264C48.9991 19.0893 49.0178 19.5851 48.9026 20.0581C48.7873 20.5311 48.5427 20.9626 48.1958 21.3043L39.9812 29.3056C39.678 29.6019 39.4512 29.9673 39.3203 30.3706C39.1894 30.7738 39.1584 31.2028 39.2298 31.6207L41.1691 42.922C41.2513 43.4033 41.1975 43.898 41.0134 44.3503C40.8294 44.8026 40.5226 45.1945 40.1277 45.4817C39.7328 45.7689 39.2654 45.94 38.7784 45.9758C38.2914 46.0115 37.8041 45.9104 37.3716 45.6839L27.2176 40.3429C26.8411 40.1479 26.4233 40.0462 25.9992 40.0462C25.5752 40.0462 25.1574 40.1479 24.7808 40.3429L14.6269 45.6839C14.1943 45.9104 13.707 46.0115 13.22 45.9758C12.733 45.94 12.2656 45.7689 11.8707 45.4817C11.4758 45.1945 11.169 44.8026 10.985 44.3503C10.801 43.898 10.7471 43.4033 10.8293 42.922L12.7686 31.6207C12.84 31.2028 12.809 30.7738 12.6781 30.3706C12.5473 29.9673 12.3205 29.6019 12.0172 29.3056L3.81278 21.3043C3.46228 20.9649 3.21414 20.5342 3.0961 20.0608C2.97807 19.5875 2.99505 19.0905 3.14519 18.6263C3.29533 18.1621 3.57251 17.7494 3.9454 17.4348C4.3183 17.1202 4.77197 16.9165 5.2548 16.8467L16.5967 15.2018C17.0161 15.1396 17.4143 14.977 17.7573 14.7277C18.1003 14.4784 18.3779 14.1498 18.5665 13.7701L23.6434 3.48415C23.8584 3.04232 24.1934 2.66986 24.61 2.40929C25.0265 2.14871 25.5079 2.01051 25.9992 2.01051C26.4905 2.01051 26.9719 2.14871 27.3884 2.40929C27.805 2.66986 28.14 3.04232 28.355 3.48415V3.48415Z" fill="#F6BC08"/>
<path d="M37.3717 42.3026L27.2177 36.9718C26.8427 36.7718 26.4243 36.6672 25.9993 36.6672C25.5743 36.6672 25.1559 36.7718 24.7809 36.9718L14.627 42.3026C12.8196 43.2571 11.1339 42.3026 11.2558 40.4343L10.8294 42.922C10.7472 43.4033 10.8011 43.8981 10.9851 44.3504C11.1691 44.8027 11.4759 45.1945 11.8708 45.4817C12.2657 45.7689 12.7331 45.9401 13.2201 45.9758C13.7071 46.0115 14.1944 45.9104 14.627 45.6839L24.7809 40.3429C25.1575 40.1479 25.5753 40.0462 25.9993 40.0462C26.4234 40.0462 26.8412 40.1479 27.2177 40.3429L37.3717 45.6839C37.8042 45.9104 38.2915 46.0115 38.7785 45.9758C39.2655 45.9401 39.7329 45.7689 40.1278 45.4817C40.5227 45.1945 40.8295 44.8027 41.0135 44.3504C41.1976 43.8981 41.2514 43.4033 41.1692 42.922L40.692 40.15C41.0169 42.2518 39.2704 43.2977 37.3717 42.3026Z" fill="#BF5105"/>
<path d="M3.16288 18.7963C3.03879 19.2376 3.03749 19.7044 3.15916 20.1464C3.28084 20.5883 3.52081 20.9887 3.85328 21.3043L12.0577 29.3056C12.324 29.5689 12.5299 29.8868 12.6614 30.2374C12.7928 30.588 12.8467 30.9629 12.8193 31.3364L13.2558 28.8385C13.3193 28.4602 13.2975 28.0724 13.1921 27.7035C13.0867 27.3347 12.9005 26.9939 12.6467 26.7062C8.34147 22.8579 3.03088 21.3957 3.16288 18.7963Z" fill="#BF5105"/>
<path d="M48.8556 18.7963C48.9821 19.2366 48.9854 19.7031 48.8655 20.1453C48.7456 20.5874 48.507 20.9882 48.1754 21.3043L39.9709 29.3056C39.7056 29.57 39.4996 29.8878 39.3665 30.2379C39.2335 30.5881 39.1764 30.9625 39.1992 31.3364L38.7728 28.8385C38.7094 28.4602 38.7311 28.0724 38.8365 27.7035C38.9419 27.3347 39.1282 26.9939 39.3819 26.7062C43.6973 22.8579 48.9977 21.3957 48.8556 18.7963Z" fill="#BF5105"/>
<path d="M12.7991 31.3059L11.2964 40.0992C11.2964 40.2211 11.2964 40.3226 11.2964 40.4343L12.8093 31.6207C12.8161 31.5157 12.8127 31.4103 12.7991 31.3059Z" fill="#F6BC08"/>
<path d="M40.7321 40.15V40.0993L39.27 31.57L40.7321 40.15Z" fill="#F6BC08"/>
<path opacity="0.48" d="M27.1362 4.91587C26.6519 6.41569 25.7416 7.74222 24.5165 8.73375C23.5011 9.42422 22.5466 9.2313 22.7497 7.71836C22.9528 6.20543 24.2118 3.84972 25.9582 3.65679C26.2397 3.6108 26.5284 3.6685 26.7706 3.81923C26.9358 3.94315 27.0593 4.11453 27.1246 4.31047C27.1899 4.5064 27.1941 4.71759 27.1362 4.91587Z" fill="white"/>
<path opacity="0.48" d="M9.68158 17.6997C8.12273 17.4792 6.53347 17.7229 5.11231 18.4003C4.03599 19.0501 3.80256 19.964 5.22411 20.4311C6.64566 20.8982 9.28568 20.7864 10.3011 19.304C10.4653 19.0707 10.5376 18.7851 10.5041 18.5018C10.464 18.3007 10.3641 18.1164 10.2173 17.9733C10.0705 17.8301 9.88364 17.7347 9.68158 17.6997Z" fill="white"/>
</svg>
