<svg width="53" height="39" viewBox="0 0 53 39" fill="none" xmlns="http://www.w3.org/2000/svg">
<path d="M35.3187 38.1156C25.2455 38.1156 17.645 34.5018 17.645 29.7103V25.3724C17.645 20.5808 25.2455 16.9744 35.3187 16.9744C45.3918 16.9744 52.9997 20.5808 52.9997 25.3724V29.7103C52.9997 34.5018 45.3992 38.1156 35.3187 38.1156Z" fill="#461414"/>
<path d="M19.1084 25.3724V29.7104C19.1084 33.5436 26.3651 36.6525 35.319 36.6525C44.2729 36.6525 51.537 33.5436 51.537 29.7104V25.3724H19.1084Z" fill="#F48603"/>
<path d="M35.3264 32.3219C44.2833 32.3219 51.5444 29.2137 51.5444 25.3797C51.5444 21.5456 44.2833 18.4375 35.3264 18.4375C26.3694 18.4375 19.1084 21.5456 19.1084 25.3797C19.1084 29.2137 26.3694 32.3219 35.3264 32.3219Z" fill="#F6BC08"/>
<path opacity="0.48" d="M43.4753 21.7147C43.4599 21.8953 43.512 22.0752 43.6216 22.2195C44.002 22.7974 44.5944 23.0315 44.8139 23.6825C45.0992 24.5896 44.7261 25.1456 44.4408 25.9722C44.1116 26.9524 45.1725 27.4353 46.021 27.3621C48.6545 27.0476 48.7861 23.8727 47.0597 22.3585C46.2365 21.6645 45.2089 21.2586 44.1336 21.2027C43.7605 21.2831 43.5046 21.4221 43.4753 21.7147Z" fill="white"/>
<path d="M51.5371 25.2772V25.7015C51.5469 25.8743 51.5272 26.0475 51.4787 26.2136C51.431 26.4487 51.3548 26.6771 51.2519 26.8939C50.9803 27.4834 50.6006 28.0169 50.1327 28.4667C49.5394 29.0563 48.8732 29.5677 48.1502 29.9883C47.7552 30.2151 47.331 30.4345 46.892 30.654C46.4531 30.8734 45.9777 31.0709 45.4876 31.2319C44.9974 31.3928 44.4926 31.5976 43.9659 31.7366C43.4347 31.9039 42.8951 32.0431 42.3493 32.1536C41.2127 32.4081 40.0623 32.5962 38.9038 32.7169C38.3186 32.7827 37.7186 32.8047 37.1187 32.8559L35.3192 32.9071L33.527 32.8412C32.9198 32.7973 32.32 32.7681 31.7275 32.6949C30.5701 32.5767 29.4217 32.3836 28.2893 32.117C27.2225 31.8883 26.1755 31.5752 25.1583 31.1807C24.6608 31.0124 24.2073 30.7856 23.7538 30.5954C23.3002 30.4052 22.8905 30.1492 22.5028 29.9224C21.7783 29.5013 21.1118 28.9873 20.5204 28.3936C20.0528 27.9422 19.6755 27.4059 19.4084 26.8134C19.3066 26.5969 19.2329 26.3683 19.189 26.1331C19.1403 25.9671 19.1204 25.7938 19.1305 25.621V25.1895L19.2182 25.6064C19.3014 25.9876 19.4552 26.3499 19.6718 26.6744C20.0045 27.1752 20.4201 27.6156 20.9008 27.9766C21.5213 28.4512 22.1937 28.8537 22.9052 29.1763C23.7524 29.5599 24.625 29.885 25.5168 30.1492C25.9923 30.2809 26.4751 30.4272 26.9798 30.5296C27.4846 30.632 28.0112 30.771 28.5452 30.8588C29.6133 31.0636 30.7399 31.1734 31.8664 31.2904C32.4297 31.3489 33.0003 31.3636 33.5709 31.4075L35.3192 31.444H37.0603C37.6309 31.444 38.2087 31.3928 38.7793 31.3416C39.9132 31.2319 41.0325 31.1221 42.0932 30.9246C42.6345 30.8368 43.154 30.7271 43.6587 30.6101C44.1635 30.493 44.6609 30.3613 45.1218 30.2297C46.0142 29.9734 46.8869 29.6531 47.7332 29.2714C48.4444 28.9511 49.1168 28.5511 49.7376 28.079C50.2197 27.7229 50.6379 27.2876 50.974 26.7915C51.1921 26.4661 51.3506 26.1044 51.4421 25.7235L51.5371 25.2772Z" fill="#FFE600"/>
<path d="M31.6615 32.9217C21.581 32.9217 13.9878 29.3079 13.9878 24.5164V20.1858C13.9878 15.3943 21.581 11.7805 31.6615 11.7805C41.7419 11.7805 49.3425 15.3943 49.3425 20.1858V24.5164C49.3425 29.3079 41.7419 32.9217 31.6615 32.9217Z" fill="#461414"/>
<path d="M15.4507 20.1858V24.5164C15.4507 28.3497 22.7074 31.4587 31.6613 31.4587C40.6152 31.4587 47.8792 28.3497 47.8792 24.5164V20.1858H15.4507Z" fill="#F48603"/>
<path d="M31.6687 27.128C40.6256 27.128 47.8867 24.0199 47.8867 20.1858C47.8867 16.3517 40.6256 13.2436 31.6687 13.2436C22.7117 13.2436 15.4507 16.3517 15.4507 20.1858C15.4507 24.0199 22.7117 27.128 31.6687 27.128Z" fill="#F6BC08"/>
<path opacity="0.48" d="M39.818 16.5282C39.8044 16.7063 39.8564 16.8832 39.9643 17.0256C40.3447 17.6109 40.9372 17.8376 41.1566 18.5326C41.4419 19.4397 41.0615 19.9956 40.7835 20.8223C40.4543 21.8025 41.5152 22.2853 42.3637 22.2122C44.9973 21.8976 45.1289 18.7155 43.4025 17.2012C42.5805 16.5061 41.5517 16.1023 40.4763 16.0527C40.1033 16.0966 39.8473 16.3014 39.818 16.5282Z" fill="white"/>
<path d="M35.3187 27.545C25.2455 27.545 17.645 23.9312 17.645 19.1397V14.8383C17.645 10.0541 25.2455 6.44038 35.3187 6.44038C45.3918 6.44038 52.9997 10.0541 52.9997 14.8383V19.1763C52.9997 23.9312 45.3992 27.545 35.3187 27.545Z" fill="#461414"/>
<path d="M19.1084 14.8383V19.1763C19.1084 23.0095 26.3651 26.1185 35.319 26.1185C44.2729 26.1185 51.537 23.0095 51.537 19.1763V14.8383H19.1084Z" fill="#F48603"/>
<path d="M35.3264 21.7513C44.2833 21.7513 51.5444 18.6432 51.5444 14.8091C51.5444 10.975 44.2833 7.8669 35.3264 7.8669C26.3694 7.8669 19.1084 10.975 19.1084 14.8091C19.1084 18.6432 26.3694 21.7513 35.3264 21.7513Z" fill="#F6BC08"/>
<path opacity="0.48" d="M43.4753 11.1807C43.4599 11.3613 43.512 11.5412 43.6216 11.6855C44.002 12.2634 44.5944 12.4975 44.8139 13.1851C45.0992 14.0922 44.7261 14.6482 44.4408 15.4748C44.1116 16.455 45.1725 16.9379 46.021 16.8647C48.6545 16.5502 48.7861 13.3753 47.0597 11.861C46.2378 11.1659 45.209 10.7621 44.1336 10.7125C43.7605 10.7125 43.5046 10.8808 43.4753 11.1807Z" fill="white"/>
<path d="M51.537 15.0285V15.4528C51.5471 15.6256 51.5274 15.7988 51.4786 15.9649C51.4309 16.2 51.3547 16.4284 51.2518 16.6452C50.9802 17.2347 50.6005 17.7682 50.1326 18.218C49.5393 18.8076 48.8731 19.319 48.1502 19.7396C47.7551 19.9664 47.3309 20.1858 46.8919 20.4053C46.453 20.6247 45.9776 20.8223 45.4875 20.9832C44.9973 21.1441 44.4925 21.3489 43.9658 21.4952C43.4345 21.6601 42.8949 21.7968 42.3492 21.9049C41.2133 22.163 40.0627 22.3511 38.9037 22.4682C38.3185 22.534 37.7185 22.556 37.1186 22.6072L35.3191 22.6584L33.5269 22.5998C32.9197 22.5486 32.3199 22.5194 31.7274 22.4535C30.5704 22.3293 29.4222 22.1338 28.2892 21.8683C27.2235 21.6386 26.1767 21.328 25.1582 20.9393C24.6607 20.7637 24.2072 20.537 23.7537 20.3468C23.3001 20.1566 22.8904 19.9078 22.5027 19.6737C21.7782 19.2526 21.1117 18.7386 20.5203 18.1449C20.0527 17.6935 19.6754 17.1572 19.4083 16.5647C19.3065 16.3482 19.2328 16.1196 19.1889 15.8844C19.1393 15.7185 19.1194 15.5451 19.1304 15.3723V14.9408L19.2181 15.3577C19.3022 15.7409 19.4559 16.1054 19.6717 16.4331C20.0068 16.9298 20.4221 17.3674 20.9007 17.7279C21.5226 18.2024 22.1948 18.6071 22.9051 18.9349C23.7525 19.316 24.6251 19.6386 25.5167 19.9005C25.9922 20.0395 26.475 20.1858 26.9797 20.2882C27.4845 20.3906 28.0111 20.5223 28.5451 20.6101C29.6132 20.8149 30.7398 20.9246 31.8663 21.0417C32.4296 21.1002 33.0002 21.1222 33.5708 21.1587L35.3191 21.1953H37.0602C37.6308 21.1953 38.2086 21.1441 38.7792 21.0929C39.9131 20.9832 41.0324 20.8807 42.0931 20.6759C42.6344 20.5881 43.1539 20.4784 43.6586 20.3614C44.1634 20.2443 44.6608 20.1127 45.1217 19.981C46.0128 19.7238 46.8853 19.406 47.7331 19.03C48.4446 18.7074 49.117 18.3049 49.7375 17.8303C50.2196 17.4743 50.6378 17.0389 50.9739 16.5428C51.1933 16.218 51.3518 15.8561 51.442 15.4748L51.537 15.0285Z" fill="#FFE600"/>
<path d="M25.4724 24.1581C20.6809 33.0242 13.885 37.9913 9.6714 35.7162L5.86007 33.6533C1.64647 31.3782 2.07807 22.973 6.86959 14.1069C11.6611 5.24073 18.4571 0.273656 22.6707 2.54871L26.4818 4.61163C30.7247 6.88668 30.2932 15.2919 25.4724 24.1581Z" fill="#461414"/>
<path d="M6.58447 32.3951L10.3957 34.458C13.7681 36.2795 19.9568 31.3709 24.2143 23.485C28.4718 15.5992 29.1887 7.74254 25.8163 5.92835L22.0051 3.86543L6.58447 32.3951Z" fill="#F48603"/>
<path d="M20.4853 21.4777C24.7441 13.5979 25.4621 5.73241 22.0892 3.90942C18.7162 2.08643 12.5295 6.9963 8.27072 14.876C4.01196 22.7557 3.29393 30.6213 6.66688 32.4443C10.0398 34.2673 16.2265 29.3574 20.4853 21.4777Z" fill="#F6BC08"/>
<path opacity="0.48" d="M14.9533 9.19097C15.1056 9.28694 15.2878 9.32337 15.4653 9.29335C16.153 9.24214 16.6431 8.83248 17.3527 8.96415C18.2891 9.13972 18.5817 9.69568 19.1889 10.3833C19.796 11.071 20.8494 10.4565 21.164 9.65179C22.1369 7.18654 19.4083 5.56258 17.2503 6.35263C16.2432 6.75287 15.3951 7.47241 14.8362 8.40091C14.7045 8.73741 14.7338 9.03735 14.9533 9.19097Z" fill="white"/>
<path d="M22.0051 3.86543L22.3708 4.07756C22.5269 4.15506 22.67 4.25626 22.7951 4.37751C22.9822 4.52885 23.1494 4.70335 23.2926 4.89687C23.6819 5.41356 23.9699 5.9994 24.1412 6.62331C24.3832 7.42627 24.5184 8.25761 24.5434 9.09588C24.5434 9.54943 24.5434 10.0249 24.5434 10.5223C24.5434 11.0198 24.4776 11.5172 24.3898 12.0293C24.3021 12.5413 24.2435 13.0754 24.1192 13.6094C23.9948 14.1434 23.8777 14.6848 23.7168 15.2261C23.3948 16.3393 23.004 17.4314 22.5464 18.496C22.3269 19.0447 22.0636 19.586 21.8148 20.1346C21.5661 20.6833 21.2735 21.21 21.0102 21.7513C20.7468 22.2927 20.403 22.7828 20.1104 23.2948C19.8178 23.8069 19.4666 24.3263 19.1301 24.8164C18.4692 25.7761 17.7536 26.6969 16.9868 27.5743C16.2784 28.4021 15.508 29.1749 14.6824 29.8859C14.302 30.2371 13.8851 30.537 13.5047 30.8442C13.1243 31.1515 12.7073 31.3929 12.3123 31.627C11.6007 32.0688 10.8331 32.4132 10.0299 32.6511C9.41099 32.8464 8.76077 32.9234 8.11333 32.8779C7.86505 32.869 7.61905 32.8272 7.3818 32.7535C7.21189 32.7158 7.04894 32.6516 6.89896 32.5633L6.51855 32.3658L6.92825 32.4902C7.30417 32.5939 7.69574 32.6286 8.08404 32.5926C8.68161 32.534 9.26514 32.3758 9.81043 32.1244C10.5214 31.7993 11.1957 31.3996 11.8221 30.932C12.5567 30.3638 13.2531 29.748 13.907 29.0885C14.2508 28.7301 14.6385 28.357 14.9458 27.9693C15.253 27.5816 15.6773 27.1793 15.9699 26.7477C16.6576 25.9064 17.2794 24.97 17.9232 24.0264C18.245 23.5582 18.523 23.0681 18.8302 22.5633L19.6934 21.0417C19.9567 20.5223 20.2274 20.0103 20.4907 19.4982C20.7541 18.9861 20.9882 18.4594 21.2223 17.9327C21.6685 16.8793 22.1001 15.8479 22.4293 14.8091C22.6049 14.2971 22.7512 13.785 22.8902 13.2802C23.0292 12.7755 23.1462 12.2853 23.2559 11.8171C23.4551 10.9088 23.5872 9.987 23.651 9.05927C23.705 8.28004 23.6706 7.49719 23.5486 6.72569C23.4636 6.13287 23.2781 5.55894 22.9999 5.02858C22.815 4.68096 22.5669 4.37086 22.2684 4.11417L22.0051 3.86543Z" fill="#FFE600"/>
</svg>
